<svg version="1.2" xmlns="http://www.w3.org/2000/svg" viewBox="0 0 281 50" width="281" height="50"><defs><clipPath clipPathUnits="userSpaceOnUse" id="cp1"><path d="m5 7.5h268.78v40.75h-268.78z"/></clipPath><clipPath clipPathUnits="userSpaceOnUse" id="cp2"><path d="m273.78 7.5h-268.78v40.75h268.78z"/></clipPath></defs><style>.a{fill:#222}.b{fill:#ec8435}</style><g clip-path="url(#cp1)"><g clip-path="url(#cp2)"><path fill-rule="evenodd" class="a" d="m179.3 27.9c0 10.2-8.3 18.6-18.6 18.6-5.7 0-10.9-2.7-14.3-6.9l3.2-4.8c2.3 3.7 6.5 6.2 11.1 6.2 7.3 0 13.1-5.9 13.1-13.1q0-0.2 0-0.3l4.2-6.6c0.8 2.1 1.3 4.4 1.3 6.9zm-4.3-11.9l-3.2 4.8c-2.3-3.7-6.4-6.1-11.1-6.1-7.2 0-13.1 5.9-13.1 13.2q0 0 0 0l-4.1 6.7c-0.8-2.1-1.3-4.4-1.3-6.7 0-10.3 8.3-18.6 18.5-18.6 5.8 0 10.9 2.6 14.3 6.7z"/><path fill-rule="evenodd" class="b" d="m141.4 46.6l14.1-23.5q0.1 0 0.1 0l23.8-14.6c0.1-0.1 0.3 0.1 0.2 0.2l-14.8 23.7q0 0 0 0l-23.2 14.4c-0.1 0.1-0.3-0.1-0.2-0.2zm19.1-16.9c1.4 0 2.5-1.1 2.5-2.5 0-1.4-1.1-2.5-2.5-2.5-1.4 0-2.5 1.1-2.5 2.5 0 1.4 1.1 2.5 2.5 2.5z"/><path class="a" d="m5 10h5.6v36h-5.6z"/><path class="a" d="m223.2 10h5.6v36h-5.6z"/><path fill-rule="evenodd" class="a" d="m120.6 10h-8v5h8v31h5.7v-31h8.1v-5h-8.1z"/><path class="a" d="m24.8 7.5v38.2h5.5v-24.7l26 27.4v-38.4h-5.2v25z"/><path class="a" d="m70.5 7.5v38.2h5.5v-24.7l26 27.4v-38.4h-5.2v25z"/><path fill-rule="evenodd" class="a" d="m202.1 31.4h-4.7v14.6h-5.5v-36h10.2c5.5 0.1 9.9 4.8 9.9 10.7 0 5.9-4.4 10.7-9.9 10.7zm-4.8-5.2h3.4q0.1 0 0.3 0c3.2 0 5.8-2.5 5.8-5.6 0-3.1-2.6-5.6-5.8-5.6q-0.2 0-0.3 0h-3.4z"/><path fill-rule="evenodd" class="a" d="m256.6 7.5l17.2 38.5h-6.2l-3.6-8.7h-15.3l-3.9 8.7h-6zm-5.6 24.6h10.7l-5.3-12.1z"/></g></g></svg>