<?xml version="1.0" encoding="utf-8"?>
<!-- Generator: Adobe Illustrator 26.0.2, SVG Export Plug-In . SVG Version: 6.00 Build 0)  -->
<svg version="1.1" id="Layer_1" xmlns="http://www.w3.org/2000/svg" xmlns:xlink="http://www.w3.org/1999/xlink" x="0px" y="0px"
	 viewBox="0 0 154 22" style="enable-background:new 0 0 154 22;" xml:space="preserve">
<style type="text/css">
	.st0{fill:#333333;}
</style>
<g>
	<g>
		<path class="st0" d="M0,2h15.9v2.9H9.6v16.6H6.2V4.9H0V2z"/>
		<path class="st0" d="M26.3,18.4c0,0.4,0.1,0.6,0.2,0.8c0.1,0.2,0.3,0.2,0.6,0.2c0.1,0,0.2,0,0.3,0c0.1,0,0.3,0,0.5-0.1v2.2
			c-0.1,0.1-0.2,0.1-0.4,0.1c-0.2,0.1-0.3,0.1-0.5,0.1c-0.2,0.1-0.3,0.1-0.6,0.1c-0.2,0-0.3,0-0.5,0c-0.6,0-1.2-0.1-1.6-0.4
			c-0.4-0.2-0.7-0.7-0.8-1.3c-0.6,0.6-1.4,1-2.3,1.3c-0.9,0.3-1.8,0.5-2.7,0.5c-0.6,0-1.3-0.1-1.8-0.3c-0.6-0.2-1.1-0.4-1.6-0.8
			c-0.5-0.3-0.8-0.8-1.1-1.3s-0.4-1.2-0.4-1.8c0-0.9,0.2-1.6,0.5-2.1c0.3-0.6,0.8-1,1.3-1.3c0.5-0.3,1.1-0.5,1.7-0.7
			c0.6-0.1,1.3-0.2,2-0.3c0.6-0.1,1.1-0.2,1.6-0.2c0.5-0.1,1-0.1,1.4-0.2c0.4-0.1,0.7-0.3,0.9-0.5c0.2-0.2,0.3-0.6,0.3-1
			c0-0.4-0.1-0.8-0.3-1c-0.2-0.2-0.4-0.5-0.7-0.6c-0.3-0.1-0.6-0.2-0.9-0.3c-0.3-0.1-0.7-0.1-1-0.1c-0.9,0-1.6,0.2-2.2,0.6
			c-0.6,0.3-0.9,0.9-1,1.7h-3.1c0.1-0.9,0.3-1.7,0.6-2.3c0.4-0.6,0.9-1.1,1.4-1.4c0.6-0.3,1.3-0.6,2-0.8C18.9,7.1,19.7,7,20.5,7
			c0.7,0,1.4,0.1,2.1,0.2c0.7,0.2,1.3,0.4,1.8,0.7c0.5,0.3,1,0.8,1.3,1.3c0.3,0.5,0.5,1.2,0.5,1.9C26.3,11.1,26.3,18.4,26.3,18.4z
			 M23.1,14.4c-0.5,0.3-1,0.5-1.7,0.6c-0.7,0.1-1.4,0.2-2.1,0.3c-0.3,0.1-0.6,0.1-1,0.2c-0.3,0.1-0.6,0.2-0.8,0.4
			c-0.2,0.2-0.4,0.4-0.6,0.7c-0.1,0.3-0.2,0.6-0.2,1c0,0.3,0.1,0.6,0.3,0.9c0.2,0.2,0.5,0.4,0.8,0.6c0.3,0.1,0.6,0.2,0.9,0.3
			c0.3,0.1,0.6,0.1,0.9,0.1c0.3,0,0.8-0.1,1.1-0.1c0.4-0.1,0.8-0.2,1.2-0.5c0.3-0.2,0.6-0.5,0.9-0.8c0.2-0.3,0.3-0.8,0.3-1.3
			L23.1,14.4L23.1,14.4z"/>
		<path class="st0" d="M29.1,2h3.2v7.3h0.1c0.2-0.3,0.5-0.6,0.8-0.9c0.3-0.3,0.6-0.5,1-0.7c0.3-0.2,0.8-0.3,1.2-0.5
			C35.8,7,36.2,7,36.6,7c1.1,0,2.1,0.2,2.9,0.6C40.3,8,41,8.5,41.6,9.2c0.6,0.7,1,1.5,1.2,2.4c0.3,0.9,0.4,1.9,0.4,2.9
			c0,0.9-0.1,1.8-0.3,2.8c-0.2,0.9-0.6,1.7-1.1,2.4c-0.5,0.7-1.2,1.2-1.9,1.7c-0.8,0.4-1.7,0.6-2.7,0.6c-0.5,0-1-0.1-1.4-0.1
			c-0.5-0.1-0.9-0.2-1.4-0.3c-0.5-0.2-0.8-0.4-1.2-0.7c-0.3-0.3-0.6-0.7-0.9-1.2h-0.1v2h-2.9V2H29.1z M40.1,14.5
			c0-0.6-0.1-1.3-0.2-1.8s-0.4-1.2-0.8-1.6c-0.3-0.5-0.8-0.9-1.2-1.1c-0.5-0.3-1-0.4-1.7-0.4c-1.3,0-2.3,0.5-3,1.4
			c-0.7,0.9-1,2.1-1,3.6c0,0.7,0.1,1.4,0.3,2c0.2,0.6,0.5,1.2,0.8,1.6c0.3,0.5,0.8,0.8,1.3,1c0.5,0.2,1,0.4,1.7,0.4
			c0.7,0,1.3-0.2,1.8-0.5c0.5-0.3,0.9-0.7,1.2-1.2c0.3-0.5,0.6-1,0.7-1.6C40,15.7,40.1,15.1,40.1,14.5z"/>
		<path class="st0" d="M45.4,2h3.1v19.6h-3.1V2z"/>
		<path class="st0" d="M53.8,15.3c0,0.6,0.1,1.1,0.2,1.6c0.2,0.5,0.4,1,0.7,1.3c0.3,0.4,0.7,0.7,1.2,0.9c0.5,0.2,1,0.3,1.7,0.3
			c0.9,0,1.7-0.2,2.2-0.6c0.6-0.4,1-1,1.3-1.8H64c-0.2,0.8-0.5,1.4-0.9,2.1c-0.4,0.6-0.9,1.1-1.4,1.5c-0.6,0.4-1.2,0.8-1.9,0.9
			c-0.7,0.2-1.4,0.3-2.2,0.3c-1.1,0-2.1-0.2-2.9-0.6c-0.9-0.3-1.6-0.9-2.2-1.6c-0.6-0.6-1-1.4-1.3-2.4c-0.3-0.9-0.5-1.9-0.5-3
			c0-1,0.2-2,0.5-2.9c0.3-0.9,0.8-1.7,1.4-2.4C53,8.5,53.8,8,54.6,7.6C55.5,7.2,56.4,7,57.4,7c1.1,0,2.1,0.2,3,0.7
			c0.9,0.5,1.6,1.1,2.2,1.8c0.6,0.8,1,1.7,1.3,2.7s0.3,2,0.2,3.1L53.8,15.3L53.8,15.3z M61.1,13.2c-0.1-0.5-0.1-1-0.3-1.4
			s-0.4-0.9-0.7-1.2c-0.3-0.3-0.7-0.6-1.1-0.8c-0.4-0.2-0.9-0.3-1.4-0.3c-0.6,0-1,0.1-1.5,0.3c-0.5,0.2-0.8,0.5-1.2,0.8
			c-0.3,0.3-0.6,0.8-0.8,1.2c-0.2,0.5-0.3,0.9-0.3,1.5L61.1,13.2L61.1,13.2z"/>
		<path class="st0" d="M64.6,7.4H67V3.1h3.1v4.3H73v2.3h-2.8v7.6c0,0.3,0,0.6,0.1,0.9c0,0.2,0.1,0.5,0.2,0.6
			c0.1,0.2,0.2,0.3,0.5,0.3c0.2,0.1,0.5,0.1,0.8,0.1c0.2,0,0.5,0,0.6,0c0.2,0,0.5-0.1,0.6-0.1v2.4c-0.3,0.1-0.7,0.1-1,0.1
			c-0.3,0.1-0.7,0.1-1,0.1c-0.8,0-1.5-0.1-2-0.2c-0.5-0.2-0.9-0.4-1.2-0.7c-0.3-0.3-0.5-0.7-0.6-1.2C67,19.1,67,18.6,67,18V9.7h-2.3
			V7.4z"/>
		<path class="st0" d="M78.6,2H82v7.8h8.9V2h3.4v19.6h-3.4v-8.8H82v8.8h-3.4V2z"/>
		<path class="st0" d="M103.4,21.9c-1.2,0-2.1-0.2-3-0.6c-0.9-0.3-1.6-0.9-2.3-1.6c-0.6-0.6-1.1-1.4-1.4-2.4c-0.3-0.9-0.5-1.9-0.5-3
			s0.2-2.1,0.5-3c0.3-0.9,0.8-1.7,1.4-2.4c0.6-0.6,1.4-1.2,2.3-1.6c0.9-0.3,1.9-0.6,3-0.6c1.2,0,2.1,0.2,3,0.6
			c0.9,0.3,1.6,0.9,2.3,1.6c0.6,0.6,1.1,1.4,1.4,2.4c0.3,0.9,0.5,1.9,0.5,3s-0.2,2.1-0.5,3c-0.3,0.9-0.8,1.7-1.4,2.4
			c-0.6,0.6-1.4,1.2-2.3,1.6C105.6,21.8,104.6,21.9,103.4,21.9z M103.4,19.5c0.7,0,1.3-0.2,1.8-0.5s0.9-0.7,1.3-1.2
			c0.3-0.5,0.6-1,0.8-1.6c0.2-0.6,0.2-1.2,0.2-1.8c0-0.6-0.1-1.2-0.2-1.8c-0.2-0.6-0.4-1.2-0.8-1.6s-0.8-0.9-1.3-1.2
			c-0.5-0.3-1.1-0.5-1.8-0.5s-1.3,0.2-1.8,0.5c-0.5,0.3-0.9,0.7-1.3,1.2c-0.3,0.5-0.6,1-0.8,1.6c-0.2,0.6-0.2,1.2-0.2,1.8
			c0,0.6,0.1,1.2,0.2,1.8c0.2,0.6,0.4,1.2,0.8,1.6c0.3,0.5,0.8,0.9,1.3,1.2C102.1,19.3,102.7,19.5,103.4,19.5z"/>
		<path class="st0" d="M111.2,7.4h2.4V3.1h3.1v4.3h2.8v2.3h-2.8v7.6c0,0.3,0,0.6,0.1,0.9c0,0.2,0.1,0.5,0.2,0.6
			c0.1,0.2,0.2,0.3,0.5,0.3c0.2,0.1,0.5,0.1,0.8,0.1c0.2,0,0.5,0,0.6,0c0.2,0,0.5-0.1,0.6-0.1v2.4c-0.3,0.1-0.7,0.1-1,0.1
			c-0.3,0.1-0.7,0.1-1,0.1c-0.8,0-1.5-0.1-2-0.2c-0.5-0.2-0.9-0.4-1.2-0.7c-0.3-0.3-0.5-0.7-0.6-1.2c-0.1-0.5-0.2-1-0.2-1.6V9.7
			h-2.4L111.2,7.4L111.2,7.4z"/>
		<path class="st0" d="M123.7,15.3c0,0.6,0.1,1.1,0.2,1.6c0.2,0.5,0.4,1,0.7,1.3c0.3,0.4,0.7,0.7,1.2,0.9c0.5,0.2,1,0.3,1.7,0.3
			c0.9,0,1.7-0.2,2.2-0.6c0.6-0.4,1-1,1.3-1.8h2.9c-0.2,0.8-0.5,1.4-0.9,2.1c-0.4,0.6-0.9,1.1-1.4,1.5c-0.6,0.4-1.2,0.8-1.9,0.9
			c-0.7,0.2-1.4,0.3-2.2,0.3c-1.1,0-2.1-0.2-2.9-0.6c-0.9-0.3-1.6-0.9-2.2-1.6c-0.6-0.6-1-1.4-1.3-2.4c-0.3-0.9-0.5-1.9-0.5-3
			c0-1,0.2-2,0.5-2.9c0.3-0.9,0.8-1.7,1.4-2.4c0.6-0.7,1.3-1.2,2.1-1.6c0.9-0.4,1.8-0.6,2.8-0.6c1.1,0,2.1,0.2,3,0.7
			c0.9,0.5,1.6,1.1,2.2,1.8c0.6,0.8,1,1.7,1.3,2.7s0.3,2,0.2,3.1L123.7,15.3L123.7,15.3z M131,13.2c-0.1-0.5-0.1-1-0.3-1.4
			c-0.2-0.5-0.4-0.9-0.7-1.2c-0.3-0.3-0.7-0.6-1.1-0.8c-0.4-0.2-0.9-0.3-1.4-0.3c-0.6,0-1,0.1-1.5,0.3c-0.5,0.2-0.8,0.5-1.2,0.8
			c-0.3,0.3-0.6,0.8-0.8,1.2c-0.2,0.5-0.3,0.9-0.3,1.5L131,13.2L131,13.2z"/>
		<path class="st0" d="M136.4,2h3.1v19.6h-3.1V2z"/>
		<path class="st0" d="M144.7,17c0.1,0.9,0.5,1.6,1,1.9c0.6,0.3,1.3,0.6,2.2,0.6c0.3,0,0.6,0,1-0.1s0.8-0.1,1-0.3
			c0.3-0.1,0.6-0.3,0.8-0.6c0.2-0.2,0.3-0.6,0.3-1c0-0.4-0.2-0.8-0.5-1c-0.3-0.2-0.6-0.5-1-0.6c-0.4-0.2-0.9-0.3-1.4-0.4
			c-0.6-0.1-1.1-0.2-1.7-0.3s-1.2-0.3-1.7-0.5s-1-0.4-1.4-0.8c-0.4-0.3-0.8-0.7-1-1.2c-0.2-0.5-0.4-1.1-0.4-1.8
			c0-0.8,0.2-1.4,0.6-1.9c0.3-0.5,0.9-0.9,1.4-1.3s1.2-0.5,1.9-0.7c0.7-0.1,1.4-0.2,2-0.2c0.8,0,1.4,0.1,2.1,0.2
			c0.7,0.2,1.3,0.4,1.8,0.8c0.5,0.3,1,0.8,1.3,1.4c0.3,0.6,0.6,1.2,0.7,2h-3.3c-0.2-0.8-0.5-1.3-1-1.5c-0.5-0.2-1.2-0.4-1.8-0.4
			c-0.2,0-0.5,0-0.8,0.1c-0.3,0.1-0.6,0.1-0.9,0.2c-0.3,0.1-0.5,0.2-0.7,0.5c-0.2,0.2-0.3,0.5-0.3,0.8c0,0.4,0.1,0.7,0.4,0.9
			c0.3,0.2,0.6,0.5,1,0.6c0.4,0.2,0.9,0.3,1.4,0.4c0.6,0.1,1.1,0.2,1.7,0.3s1.1,0.3,1.7,0.5c0.5,0.2,1,0.4,1.4,0.8
			c0.4,0.3,0.8,0.7,1,1.2s0.4,1,0.4,1.7c0,0.9-0.2,1.6-0.6,2.1c-0.4,0.6-0.9,1-1.5,1.4c-0.6,0.3-1.3,0.6-2,0.8s-1.5,0.2-2.2,0.2
			c-0.9,0-1.7-0.1-2.5-0.3s-1.4-0.5-2-0.9c-0.6-0.4-1-0.9-1.3-1.6c-0.3-0.6-0.5-1.3-0.5-2.2L144.7,17L144.7,17z"/>
	</g>
	<path class="st0" d="M74.1,0c0.3,0,0.7,0.1,1,0.2c0.3,0.2,0.6,0.5,0.8,0.8c0.2,0.3,0.3,0.7,0.3,1s-0.1,0.7-0.3,1S75.3,3.6,75,3.8
		s-0.7,0.3-1,0.3c-0.3,0-0.7-0.1-1-0.3c-0.3-0.2-0.6-0.5-0.8-0.8C72.2,2.7,72,2.4,72,2s0.1-0.7,0.3-1s0.5-0.6,0.8-0.8
		C73.4,0.1,73.7,0,74.1,0z M74.1,0.3c-0.3,0-0.6,0.1-0.9,0.2s-0.5,0.3-0.6,0.6s-0.2,0.6-0.2,0.9s0.1,0.6,0.2,0.9
		c0.2,0.3,0.3,0.5,0.6,0.6s0.6,0.2,0.9,0.2c0.3,0,0.6-0.1,0.9-0.2c0.3-0.2,0.5-0.3,0.6-0.6s0.2-0.6,0.2-0.9s-0.1-0.6-0.2-0.9
		c-0.2-0.3-0.4-0.5-0.6-0.6C74.6,0.4,74.3,0.3,74.1,0.3z M73.1,3.2V1h0.8c0.2,0,0.5,0,0.6,0.1c0.1,0,0.2,0.1,0.3,0.2
		s0.1,0.2,0.1,0.3c0,0.2-0.1,0.3-0.2,0.4c-0.1,0.1-0.2,0.2-0.5,0.2c0.1,0,0.1,0.1,0.2,0.1c0.1,0.1,0.2,0.2,0.3,0.5L75,3.2h-0.5
		l-0.1-0.3c-0.2-0.3-0.3-0.5-0.4-0.5c-0.1-0.1-0.2-0.1-0.3-0.1h-0.2v1L73.1,3.2L73.1,3.2L73.1,3.2z M73.5,2h0.5c0.2,0,0.3,0,0.4-0.1
		c0.1-0.1,0.1-0.2,0.1-0.2c0-0.1,0-0.1-0.1-0.2c-0.1-0.1-0.1-0.1-0.2-0.1c-0.1,0-0.2,0-0.3,0h-0.4V2L73.5,2z"/>
</g>
</svg>
