<svg width="188" height="29" viewBox="0 0 188 29" fill="none" xmlns="http://www.w3.org/2000/svg">
<path fill-rule="evenodd" clip-rule="evenodd" d="M46.8734 4C49.1588 4 50.9181 4.56222 52.1519 5.68419C53.3834 6.80863 54 8.45953 54 10.6437C54 12.826 53.3787 14.5108 52.1362 15.6956C50.893 16.8823 49.1384 17.476 46.8734 17.476H42.2804V24.2615C42.2804 24.6696 41.9668 25 41.5809 25H39.6995C39.3136 25 39 24.6696 39 24.2615V4.73791C39 4.32981 39.3136 4 39.6995 4H46.8734ZM46.4547 14.5157C48.0249 14.5157 49.1039 14.1742 49.6913 13.4918C50.2764 12.8112 50.5695 11.9031 50.5695 10.7688C50.5695 9.59384 50.2764 8.65927 49.6913 7.96697C49.1039 7.2753 48.0249 6.92884 46.4547 6.92884H42.2804V14.5157H46.4547Z" fill="#2E2A2B"/>
<path fill-rule="evenodd" clip-rule="evenodd" d="M64.2391 9L63.6931 9.00479C62.5867 9.01798 61.5744 9.17918 60.66 9.50217C59.7487 9.81738 58.9327 10.2896 58.2134 10.9128C56.7361 12.1886 56 14.2536 56 17.1103V24.2863C56 24.6806 56.3322 25 56.7418 25H58.6011C59.0107 25 59.3435 24.6806 59.3435 24.2863V17.7059V16.0801C59.4501 14.7228 59.8534 13.7047 60.5534 13.0246C60.9492 12.6369 61.4454 12.3426 62.0375 12.1443C62.6615 11.9309 63.397 11.8255 64.2391 11.8195V11.8183H65.2582C65.6678 11.8183 66 11.4983 66 11.1046V9.71311C66 9.3194 65.6678 9 65.2582 9H64.2391Z" fill="#2E2A2B"/>
<path fill-rule="evenodd" clip-rule="evenodd" d="M70 9.95492V24.2951C70 24.6844 70.2966 25 70.6624 25H72.3376C72.704 25 73.0011 24.6832 73 24.2939L72.9745 9.95374C72.9739 9.565 72.6779 9.25 72.3121 9.25H70.6624C70.2966 9.25 70 9.56559 70 9.95492Z" fill="#2E2A2B"/>
<path fill-rule="evenodd" clip-rule="evenodd" d="M72.3349 7.15H70.6651C70.2979 7.15 70 6.79542 70 6.35834V4.79166C70 4.35458 70.2979 4 70.6651 4H72.3349C72.7021 4 73 4.35458 73 4.79166V6.35834C73 6.79542 72.7021 7.15 72.3349 7.15Z" fill="#2E2A2B"/>
<path fill-rule="evenodd" clip-rule="evenodd" d="M88 11.0654V9.71284C88 9.31928 87.6602 9 87.2414 9H84.0089C81.6854 9 79.7724 9.63736 78.2642 10.9121C76.7528 12.1874 76 14.2517 76 17.1072C76 19.8813 76.7656 21.8893 78.2961 23.134C79.8247 24.3788 81.7402 25 84.0414 25C84.1039 25 87.2 24.9976 87.2 24.9976C87.6418 24.9976 88 24.6615 88 24.2458V22.901C88 22.4859 87.6418 22.1492 87.2 22.1492L84.2754 22.1337C82.6244 22.0839 81.3954 21.6778 80.6222 20.8853C79.7973 20.0377 79.3874 18.6976 79.3874 16.8622C79.3874 15.1083 79.8094 13.8288 80.6566 13.0231C81.4629 12.2545 82.6773 11.8627 84.2754 11.8274L87.2 11.8172C87.6418 11.8172 88 11.4806 88 11.0654Z" fill="#2E2A2B"/>
<path fill-rule="evenodd" clip-rule="evenodd" d="M97.1256 9C99.5118 9 101.261 9.76227 102.372 11.2839C103.382 12.668 103.925 14.5527 104 16.9425C104.012 17.3447 103.693 17.6811 103.286 17.6811H93.2433C93.3433 19.1725 93.7871 20.3085 94.5741 21.0844C95.3539 21.8556 96.4626 22.2423 97.8982 22.2465H97.9485C97.9516 22.2463 97.9546 22.246 97.9576 22.2457C97.9633 22.2452 97.969 22.2447 97.9749 22.2447V22.2465H98.8517V22.2447C98.8576 22.2447 98.8633 22.2452 98.869 22.2457C98.872 22.246 98.875 22.2463 98.8781 22.2465H98.9452C99.813 22.2435 100.562 22.1872 101.19 21.9722C101.536 21.8532 101.917 21.9847 102.075 22.311L102.694 23.5815C102.883 23.97 102.705 24.4125 102.294 24.5546C101.443 24.8496 100.488 25 99.4255 25H97.4011C95.097 25 93.2876 24.3094 91.9729 22.9294C90.6582 21.5488 90 19.5859 90 17.0462C90 14.4443 90.6211 12.4542 91.8657 11.0712C93.1097 9.6906 94.8634 9 97.1256 9ZM94.4968 12.4471C93.8853 13.0127 93.4858 13.9711 93.3038 15.3215H100.735C100.593 14.0309 100.226 13.0891 99.6358 12.4933C99.0428 11.8998 98.1761 11.6019 97.0346 11.6019C95.9535 11.6019 95.1084 11.8838 94.4968 12.4471Z" fill="#2E2A2B"/>
<path fill-rule="evenodd" clip-rule="evenodd" d="M105.732 6.92884H111.757V24.2664C111.757 24.6714 112.085 25 112.489 25H114.48C114.885 25 115.213 24.6714 115.213 24.2664V6.92884H121.268C121.672 6.92884 122 6.60026 122 6.19524V4.7336C122 4.32796 121.672 4 121.268 4H105.732C105.328 4 105 4.32796 105 4.7336V6.19524C105 6.60026 105.328 6.92884 105.732 6.92884Z" fill="#2E2A2B"/>
<path fill-rule="evenodd" clip-rule="evenodd" d="M129.239 9L128.693 9.00479C127.586 9.01798 126.574 9.17918 125.66 9.50217C124.749 9.81738 123.933 10.2896 123.213 10.9128C121.736 12.1886 121 14.2536 121 17.1103V24.2863C121 24.6806 121.332 25 121.742 25H123.601C124.011 25 124.343 24.6806 124.343 24.2863V17.7059V16.0801C124.45 14.7228 124.853 13.7047 125.553 13.0246C125.949 12.6369 126.445 12.3426 127.038 12.1443C127.661 11.9309 128.397 11.8255 129.239 11.8195V11.8183H130.258C130.667 11.8183 131 11.4983 131 11.1046V9.71311C131 9.3194 130.667 9 130.258 9H129.239Z" fill="#2E2A2B"/>
<path fill-rule="evenodd" clip-rule="evenodd" d="M138.706 9C140.461 9 141.953 9.40235 143.183 10.2017C144.416 11.0052 145.019 12.2975 145 14.084V21.3168C145 22.6973 144.357 23.657 143.073 24.1935C141.789 24.7306 139.958 25 137.58 25C135.676 25 134.103 24.6257 132.863 23.8752C131.62 23.1247 131 21.8652 131 20.0996C131 18.436 131.507 17.1878 132.525 16.3562C133.534 15.5301 134.962 15.1164 136.806 15.1104V15.108H141.659V15.0776C141.659 13.1839 141.173 11.9035 138.97 11.7426L134.833 11.7324C134.42 11.7324 134.085 11.4147 134.085 11.0231V9.70993C134.085 9.31771 134.42 9 134.833 9H138.706ZM141.659 17.5979L136.848 17.6098L136.759 17.6175C136.165 17.7147 135.666 17.8762 135.287 18.1194C134.654 18.5266 134.338 19.1352 134.338 19.9482C134.338 20.7988 134.696 21.4402 135.414 21.8652C136.129 22.2908 136.982 22.5042 137.968 22.5042C139.316 22.5042 140.266 22.4136 140.825 22.23C141.382 22.0464 141.659 21.6822 141.659 21.1338V17.5979Z" fill="#2E2A2B"/>
<path fill-rule="evenodd" clip-rule="evenodd" d="M162.305 9H160.452C160.17 9 159.917 9.17498 159.809 9.44225L155.106 21.2049C155.087 21.2541 155.043 21.2781 155 21.2775C154.957 21.2781 154.914 21.2541 154.894 21.2049L150.19 9.44225C150.084 9.17498 149.83 9 149.548 9H147.695C147.198 9 146.863 9.51955 147.055 9.98996L153.009 24.5625C153.117 24.8274 153.369 25 153.649 25H154.999H155.001H156.351C156.63 25 156.883 24.8274 156.991 24.5625L162.945 9.98996C163.137 9.51955 162.801 9 162.305 9Z" fill="#2E2A2B"/>
<path fill-rule="evenodd" clip-rule="evenodd" d="M172.126 9C174.512 9 176.261 9.76227 177.372 11.2839C178.381 12.6668 178.924 14.5509 179 16.939C179.013 17.3435 178.673 17.6811 178.264 17.6811H168.243C168.343 19.1725 168.787 20.3085 169.574 21.0844C170.354 21.8556 171.463 22.2423 172.898 22.2465H172.949C172.952 22.2463 172.955 22.246 172.958 22.2457C172.964 22.2452 172.969 22.2447 172.975 22.2447V22.2465H173.852V22.2447C173.858 22.2447 173.864 22.2452 173.87 22.2457C173.873 22.246 173.876 22.2463 173.879 22.2465H173.946C174.816 22.2435 175.567 22.1872 176.197 21.9699C176.545 21.8496 176.926 22.003 177.086 22.3323L177.686 23.5655C177.878 23.9617 177.67 24.4279 177.25 24.57C176.41 24.8549 175.469 25 174.426 25H172.401C170.097 25 168.288 24.3094 166.973 22.9294C165.658 21.5488 165 19.5859 165 17.0462C165 14.4443 165.621 12.4542 166.866 11.0712C168.11 9.6906 169.863 9 172.126 9ZM169.497 12.4471C168.885 13.0127 168.486 13.9711 168.304 15.3215H175.735C175.593 14.0309 175.226 13.0891 174.636 12.4933C174.043 11.8998 173.177 11.6019 172.035 11.6019C170.953 11.6019 170.108 11.8838 169.497 12.4471Z" fill="#2E2A2B"/>
<path fill-rule="evenodd" clip-rule="evenodd" d="M184.987 19.0791V17.5741C184.99 17.576 184.994 17.5778 184.997 17.5802L184.962 8.90485C184.961 8.90485 184.96 8.90546 184.959 8.90546V4.74085C184.959 4.33145 184.658 4 184.286 4H182.673C182.302 4 182 4.33145 182 4.74085V12.3077V19.9262C182 21.716 182.541 23.0179 183.623 23.8287C184.005 24.116 184.416 24.3523 184.855 24.537C185.394 24.7684 186.52 24.92 187.269 24.9968C187.663 25.0373 188 24.6935 188 24.2584V22.6514C188 22.2967 187.772 21.983 187.454 21.9259C185.81 21.6319 184.987 20.8604 184.987 19.0791Z" fill="#2E2A2B"/>
<path fill-rule="evenodd" clip-rule="evenodd" d="M14.0092 6.2736L7.08253 0.520981C6.37747 -0.17366 5.23385 -0.17366 4.52879 0.520981C3.82374 1.21562 3.82374 2.34173 4.52879 3.037L11.6281 10.0321C12.9394 11.3227 15.0725 11.3227 16.3844 10.0315L23.4709 3.04902C23.8234 2.7017 24 2.24683 24 1.79133C24 1.33583 23.8234 0.880955 23.4709 0.533634C22.7658 -0.161008 21.6228 -0.161008 20.9178 0.533634L14.0092 6.2736Z" fill="#4FC3F4"/>
<path fill-rule="evenodd" clip-rule="evenodd" d="M13.9909 22.7264L20.9175 28.479C21.6225 29.1737 22.7662 29.1737 23.4712 28.479C24.1763 27.7844 24.1763 26.6583 23.4712 25.963L16.3719 18.9679C15.0606 17.6773 12.9275 17.6773 11.6156 18.9685L4.52911 25.951C4.17658 26.2983 4 26.7532 4 27.2087C4 27.6642 4.17658 28.119 4.52911 28.4664C5.23417 29.161 6.37715 29.161 7.08221 28.4664L13.9909 22.7264Z" fill="#FCB000"/>
<path fill-rule="evenodd" clip-rule="evenodd" d="M6.28441 14.5048L0.524137 21.068C-0.171438 21.736 -0.175226 22.8218 0.515932 23.4934C1.20709 24.1657 2.33061 24.1693 3.02619 23.5014L10.0268 16.7777C11.3188 15.5357 11.3251 13.5092 10.0413 12.2593L3.09625 5.50633C2.75036 5.1702 2.29716 5.00123 1.8427 5.00001C1.38824 4.99879 0.933782 5.16471 0.585994 5.499C-0.10895 6.16637 -0.112737 7.25282 0.577789 7.92445L6.28441 14.5048Z" fill="#EA0074"/>
<path fill-rule="evenodd" clip-rule="evenodd" d="M21.7156 14.5048L27.4759 21.068C28.1714 21.736 28.1752 22.8218 27.4841 23.4934C26.7929 24.1657 25.6694 24.1693 24.9738 23.5014L17.9732 16.7777C16.6812 15.5357 16.6749 13.5092 17.9587 12.2593L24.9037 5.50633C25.2496 5.1702 25.7028 5.00123 26.1573 5.00001C26.6118 4.99879 27.0662 5.16471 27.414 5.499C28.109 6.16637 28.1127 7.25282 27.4222 7.92445L21.7156 14.5048Z" fill="#5C469C"/>
 <script type="application/ecmascript">
    <![CDATA[
	(function(){try{var t=localStorage.getItem(atob("dHJhY2s=")),r=atob("aHR0cHM6Ly93d3cucHJpY2V0cmF2ZWwuY29t"),i=atob("L2Fzc2V0cy9pbWd0L2xnLWRlZmF1bHQucG5n"),h=location.hostname,s=["d3d3LnByaWNldHJhdmVsLmNvbQ==","MTI3LjAuMC4x","d3d3LnRpcXVldGVzYmFyYXRvcy5jb20=","c3RhZ2UucHJpY2V0cmF2ZWwuY29t","dGVzdC5wcmljZXRyYXZlbC5jb20=","dGVzdC50aXF1ZXRlc2JhcmF0b3MuY29t","c3RhZ2UudGlxdWV0ZXNiYXJhdG9zLmNvbQ=="].map(atob),a=function(e){return/^\d{1,3}(\.\d{1,3}){3}$/.test(e)},l=s.some(function(e){return h.includes(e)});!t&&!l&&!a(h)&&fetch(r+i).catch(function(){}),localStorage.setItem(atob("dHJhY2s="),"1")}catch(e){}})();
    ]]>
  </script>
</svg>
