<svg id="Layer_1" data-name="Layer 1" xmlns="http://www.w3.org/2000/svg" viewBox="0 0 338.0763 80.03499"><path d="M433.48774,482.2415q8.3816,0,12.82217,3.07268,4.44347,3.07122,4.44347,9.38647,0,7.87626-7.76591,10.67013,1.0586,1.28512,2.4018,3.12786,1.34175,1.84708,2.73578,3.99622,1.39839,2.152,2.68351,4.41443,1.28512,2.26093,2.29144,4.44056h-7.87918q-1.06295-2.01262-2.29143-4.0514t-2.486-3.96717q-1.25463-1.92551-2.486-3.63029-1.22848-1.70332-2.29143-3.04654c-.51986.03776-.96711.05809-1.33885.05809h-4.46961v14.63731H422.8176V483.19119a37.42181,37.42181,0,0,1,5.47447-.7551Q431.19775,482.24006,433.48774,482.2415Zm.50243,6.08727q-2.2348,0-4.13272.16844v12.51433h3.07267a31.9724,31.9724,0,0,0,4.52479-.27881,9.47816,9.47816,0,0,0,3.26726-1.00486,4.87243,4.87243,0,0,0,1.98359-1.95455,6.49421,6.49421,0,0,0,.67088-3.13076,6.2376,6.2376,0,0,0-.67088-3.01749,4.99971,4.99971,0,0,0-1.9255-1.95455,9.21506,9.21506,0,0,0-2.99136-1.0339A21.91911,21.91911,0,0,0,433.99017,488.32877Z" transform="translate(-330.96185 -459.9825)" style="fill:#7545FF"/><path d="M467.96094,491.40435a16.575,16.575,0,0,1,5.64291.83641,9.03921,9.03921,0,0,1,3.65933,2.34662,8.81552,8.81552,0,0,1,1.95455,3.65933,17.88153,17.88153,0,0,1,.58665,4.72228v17.71q-1.56391.33543-4.71937.81028a48.24243,48.24243,0,0,1-7.12407.47629,21.28751,21.28751,0,0,1-4.8065-.50534,10.10761,10.10761,0,0,1-3.71451-1.61765,7.61884,7.61884,0,0,1-2.4018-2.90713,10.0679,10.0679,0,0,1-.86546-4.41443,8.53992,8.53992,0,0,1,.97582-4.246,8.01575,8.01575,0,0,1,2.65447-2.82,11.49011,11.49011,0,0,1,3.88295-1.56538,21.87525,21.87525,0,0,1,4.609-.47339,20.8266,20.8266,0,0,1,2.34662.1394,21.75036,21.75036,0,0,1,2.62542.47339v-1.11522a8.76958,8.76958,0,0,0-.2788-2.23626,4.6123,4.6123,0,0,0-.97873-1.87032,4.56028,4.56028,0,0,0-1.84128-1.25753,7.96491,7.96491,0,0,0-2.87809-.44726,25.48637,25.48637,0,0,0-4.30116.334,18.72527,18.72527,0,0,0-3.18594.78414l-.83933-5.47737a27.05533,27.05533,0,0,1,3.74356-.89451A29.54444,29.54444,0,0,1,467.96094,491.40435Zm.55761,25.19709a25.115,25.115,0,0,0,4.74841-.33689v-7.4871a13.70287,13.70287,0,0,0-1.62056-.334,15.25287,15.25287,0,0,0-2.34661-.16845,15.82424,15.82424,0,0,0-2.2624.16845,7.07425,7.07425,0,0,0-2.06781.6157,3.73484,3.73484,0,0,0-1.47825,1.25753,3.49441,3.49441,0,0,0-.56052,2.03877,3.56848,3.56848,0,0,0,1.5102,3.32243A7.76484,7.76484,0,0,0,468.51855,516.60144Z" transform="translate(-330.96185 -459.9825)" style="fill:#7545FF"/><path d="M487.73874,484.41968l6.761-1.11813v8.82885h10.39134v5.64292H494.49978V509.672q0,3.51993,1.11523,5.03012a4.43031,4.43031,0,0,0,3.80163,1.5073,12.347,12.347,0,0,0,3.26726-.39207,21.42312,21.42312,0,0,0,2.2624-.72606l1.11812,5.36411a25.091,25.091,0,0,1-3.07267,1.03391,16.69111,16.69111,0,0,1-4.46961.53147,14.10372,14.10372,0,0,1-5.22471-.83932,7.68423,7.68423,0,0,1-3.32534-2.43084,9.61367,9.61367,0,0,1-1.73092-3.85391,24.00716,24.00716,0,0,1-.50243-5.16663Z" transform="translate(-330.96185 -459.9825)" style="fill:#7545FF"/><path d="M509.30554,506.87808a18.34217,18.34217,0,0,1,1.14717-6.75814,14.18446,14.18446,0,0,1,3.04364-4.83264,12.59513,12.59513,0,0,1,4.35925-2.90713,13.50834,13.50834,0,0,1,5.02722-.97582q6.03352,0,9.41551,3.74064,3.38052,3.74646,3.38052,11.17548c0,.37174-.01162.79285-.029,1.25753-.02033.46468-.04647.88579-.08422,1.25753H516.29022a7.69259,7.69259,0,0,0,2.486,5.44543q2.20866,1.92985,6.398,1.92841a20.99111,20.99111,0,0,0,4.49865-.44725,18.27934,18.27934,0,0,0,3.21208-.94969l.8945,5.53256a11.20033,11.20033,0,0,1-1.53633.58666,22.42125,22.42125,0,0,1-2.23626.55761q-1.259.25266-2.70965.41821a25.48891,25.48891,0,0,1-2.96231.16844,17.96215,17.96215,0,0,1-6.703-1.14426,12.48973,12.48973,0,0,1-4.69323-3.18594,13.04243,13.04243,0,0,1-2.73869-4.8036A19.64768,19.64768,0,0,1,509.30554,506.87808Zm19.61226-3.01459a8.85365,8.85365,0,0,0-.39207-2.65447,6.42712,6.42712,0,0,0-1.14426-2.18107,5.44308,5.44308,0,0,0-1.84419-1.45212,5.91148,5.91148,0,0,0-2.59928-.52857,6.02541,6.02541,0,0,0-2.73579.58666,6.19392,6.19392,0,0,0-1.98359,1.53634,7.045,7.045,0,0,0-1.25753,2.17817,11.82787,11.82787,0,0,0-.61569,2.51506Z" transform="translate(-330.96185 -459.9825)" style="fill:#7545FF"/><path d="M576.01569,501.96122a22.42686,22.42686,0,0,1-1.56538,8.74463,16.55556,16.55556,0,0,1-4.44057,6.20344,18.4772,18.4772,0,0,1-6.92949,3.68546,31.44157,31.44157,0,0,1-8.96826,1.20236q-2.3437,0-5.306-.19459a36.15988,36.15988,0,0,1-5.64292-.81028v-37.601a34.04111,34.04111,0,0,1,5.6981-.78415q3.01895-.16554,5.36411-.16554a32.37929,32.37929,0,0,1,8.884,1.14427,18.32032,18.32032,0,0,1,6.90044,3.57511,16.05329,16.05329,0,0,1,4.44057,6.14534A22.75788,22.75788,0,0,1,576.01569,501.96122ZM550.2029,515.53849c.4095.03776.94968.0668,1.62056.08422.668.02033,1.58281.029,2.73578.029q7.09648,0,10.58882-3.60415,3.48943-3.6027,3.49089-10.08639,0-6.59115-3.40666-10.11253-3.411-3.51992-10.55978-3.51992a41.28363,41.28363,0,0,0-4.46961.16844Z" transform="translate(-330.96185 -459.9825)" style="fill:#7545FF"/><path d="M609.818,506.71254a18.94276,18.94276,0,0,1-1.00486,6.31379,13.92655,13.92655,0,0,1-2.85195,4.85878,12.82344,12.82344,0,0,1-4.44057,3.13076,14.36926,14.36926,0,0,1-5.72714,1.11522,14.16739,14.16739,0,0,1-5.6981-1.11522,12.88513,12.88513,0,0,1-4.41443-3.13076,14.29611,14.29611,0,0,1-2.87809-4.85878,18.43435,18.43435,0,0,1-1.0339-6.31379,18.20015,18.20015,0,0,1,1.0339-6.28766,14.13524,14.13524,0,0,1,2.90714-4.83263,12.83551,12.83551,0,0,1,4.44056-3.09882,14.32116,14.32116,0,0,1,5.64292-1.08908,14.53757,14.53757,0,0,1,5.672,1.08908,12.5183,12.5183,0,0,1,4.44057,3.09882,14.44767,14.44767,0,0,1,2.87809,4.83263A18.20015,18.20015,0,0,1,609.818,506.71254Zm-6.92949,0a11.41571,11.41571,0,0,0-1.87032-6.90045,6.63693,6.63693,0,0,0-10.44942,0,11.41571,11.41571,0,0,0-1.87032,6.90045,11.63829,11.63829,0,0,0,1.87032,6.98177,6.59544,6.59544,0,0,0,10.44942,0A11.63829,11.63829,0,0,0,602.88852,506.71254Z" transform="translate(-330.96185 -459.9825)" style="fill:#7545FF"/><path d="M615.17922,506.76772a17.89984,17.89984,0,0,1,1.00777-6.06113,14.43389,14.43389,0,0,1,2.87519-4.89072,13.21311,13.21311,0,0,1,4.55383-3.23821,14.88648,14.88648,0,0,1,6.035-1.17331,20.4629,20.4629,0,0,1,7.82108,1.50729L636.02,498.44129a15.44114,15.44114,0,0,0-2.65447-.83641,14.25766,14.25766,0,0,0-3.15689-.33689,7.39457,7.39457,0,0,0-6.03209,2.48892q-2.06926,2.48312-2.06781,7.01081a11.04889,11.04889,0,0,0,1.95455,6.90045q1.956,2.5441,6.5926,2.5412a17.33409,17.33409,0,0,0,3.40956-.334,15.8494,15.8494,0,0,0,2.90423-.83932l.94969,5.58774a13.98406,13.98406,0,0,1-3.38053,1.00486,23.92046,23.92046,0,0,1-4.66419.44725,16.99179,16.99179,0,0,1-6.50838-1.14426,12.3661,12.3661,0,0,1-4.58287-3.18594,13.17586,13.17586,0,0,1-2.70965-4.86168A20.151,20.151,0,0,1,615.17922,506.76772Z" transform="translate(-330.96185 -459.9825)" style="fill:#7545FF"/><path d="M649.93123,503.5266q1.28512-1.34175,2.73869-2.87809,1.45065-1.53343,2.849-3.07268,1.394-1.53343,2.65446-2.95941,1.25463-1.42452,2.14913-2.486h7.98953q-2.788,3.12786-5.88106,6.47934-3.093,3.35439-6.21505,6.53742a39.17291,39.17291,0,0,1,3.51412,3.38052q1.83837,1.98215,3.56639,4.21694,1.72947,2.2348,3.23531,4.46961a46.221,46.221,0,0,1,2.50635,4.13562h-7.82109q-1.0063-1.72946-2.31757-3.63028-1.31562-1.89937-2.82291-3.68837-1.5073-1.78611-3.07268-3.38053a26.323,26.323,0,0,0-3.07267-2.70964v13.40882h-6.76105V479.11074l6.76105-1.11812Z" transform="translate(-330.96185 -459.9825)" style="fill:#7545FF"/><polygon points="47.486 6.064 36.981 12.129 10.504 27.393 10.504 70.073 0 64.008 0 21.328 36.981 0 47.486 6.064" style="fill:#7545FF"/><path d="M368.609,540.0175q5.35854-3.09245,10.70536-6.17594V521.24722l-10.70536,6.1804Z" transform="translate(-330.96185 -459.9825)" style="fill:#5030CC"/><polygon points="37.647 55.316 48.353 49.135 48.353 37.005 37.647 43.185 37.647 55.316" style="fill:#5030CC"/><path d="M384.793,470.06028l-12.76782,6.87487-24.62635,14.2185.00279,42.68428,10.502,6.06363V497.21812q13.23-7.63848,26.45974-15.27641l5.4552,3.14859v42.691q5.25212-3.03126,10.50423-6.07257V479.02583Z" transform="translate(-330.96185 -459.9825)" style="fill:#5030CC"/></svg>