<svg version="1.2" xmlns="http://www.w3.org/2000/svg" viewBox="0 0 4197 860" width="4197" height="860"><style>.a{fill:#232323;stroke:#232323;stroke-width:16.7}.b{fill:#fff;stroke:#fff;stroke-width:16.7}</style><path fillRule="evenodd" class="a" d="m195 9.2l307.9 841.7h-182.8l-307.9-841.7z"/><path class="b" d="m831.2 9.2l-259.8 702.2c-117.8-70.9-105.8-174.3-105.8-174.3l173.1-527.9z"/><path fillRule="evenodd" class="a" d="m1138.1 9.2v841.7h-188.8v-841.7z"/><path class="a" d="m1836.6 686.4v164.7h-531.5v-841.7h188.8v675.8z"/><path class="a" d="m2468.3 686.4v164.7h-531.5v-841.7h188.8v675.8z"/><path class="a" d="m3240.7 850.7h-212.8l-149.1-275.4h-121.5v275.4h-188.8v-841.7h343.9c202.1 0 317.5 90.2 317.5 275.3 0 141.9-60.1 230.9-169.6 269.4zm-187.5-559.2c0-92.6-54.1-127.4-151.6-127.4h-145.5v257.3h145.5c96.2 0 151.6-36.1 151.6-129.9z"/><path fillRule="evenodd" class="a" d="m3839.5 9.2h-199.6l-341.5 841.7h192.4l113-306.6 129.9-335.7 239.3 642.3h200.8z"/></svg>